<?xml version="1.0" standalone="no"?>
<!DOCTYPE svg PUBLIC "-//W3C//DTD SVG 20010904//EN"
 "http://www.w3.org/TR/2001/REC-SVG-20010904/DTD/svg10.dtd">
<svg version="1.0" xmlns="http://www.w3.org/2000/svg"
 width="300.000000pt" height="266.000000pt" viewBox="0 0 300.000000 266.000000"
 preserveAspectRatio="xMidYMid meet">

<g transform="translate(0.000000,266.000000) scale(0.100000,-0.100000)"
fill="#141414" stroke="none">
<path d="M1035 2544 c-66 -23 -112 -69 -149 -147 -127 -263 -19 -674 206 -786
34 -17 72 -31 86 -31 79 0 168 61 214 146 91 168 75 452 -36 639 -85 144 -216
217 -321 179z"/>
<path d="M1895 2489 c-155 -82 -266 -264 -296 -485 -27 -203 47 -395 167 -434
46 -16 128 -9 176 14 164 79 292 325 293 566 0 164 -50 286 -141 337 -53 31
-144 31 -199 2z"/>
<path d="M432 1819 c-19 -5 -53 -30 -77 -54 -64 -63 -90 -152 -82 -284 15
-264 203 -495 403 -495 148 0 234 115 234 313 0 100 -14 165 -52 251 -47 103
-141 208 -223 249 -53 27 -151 36 -203 20z"/>
<path d="M2420 1661 c-140 -27 -283 -179 -342 -364 -28 -87 -29 -233 -3 -306
104 -284 443 -195 588 154 25 59 30 88 34 180 6 127 -3 173 -50 241 -50 75
-138 112 -227 95z"/>
<path d="M1397 1285 c-113 -28 -230 -109 -372 -257 -256 -267 -419 -623 -356
-775 16 -40 75 -87 143 -114 43 -18 74 -22 163 -23 112 0 125 2 378 65 165 41
199 39 348 -18 115 -45 131 -48 214 -48 78 0 97 4 140 27 115 61 174 139 175
229 1 190 -178 518 -396 730 -164 159 -302 217 -437 184z"/>
</g>
</svg>
