<svg width="411" height="50" viewBox="0 0 411 50" fill="none" xmlns="http://www.w3.org/2000/svg">
<path d="M0.12 39V5.736H19.944L19.128 11.352H7.992V20.184H17.688V25.8H7.992V39H0.12ZM43.9031 25.752C43.9031 26.808 43.8551 27.72 43.7591 28.488H27.9671C28.2231 30.632 28.8311 32.136 29.7911 33C30.7511 33.864 32.0791 34.296 33.7751 34.296C34.7991 34.296 35.7911 34.12 36.7511 33.768C37.7111 33.384 38.7511 32.808 39.8711 32.04L42.9911 36.264C40.0151 38.632 36.7031 39.816 33.0551 39.816C28.9271 39.816 25.7591 38.6 23.5511 36.168C21.3431 33.736 20.2391 30.472 20.2391 26.376C20.2391 23.784 20.7031 21.464 21.6311 19.416C22.5591 17.336 23.9191 15.704 25.7111 14.52C27.5031 13.304 29.6471 12.696 32.1431 12.696C35.8231 12.696 38.7031 13.848 40.7831 16.152C42.8631 18.456 43.9031 21.656 43.9031 25.752ZM36.4631 23.592C36.3991 19.688 35.0231 17.736 32.3351 17.736C31.0231 17.736 29.9991 18.216 29.2631 19.176C28.5591 20.136 28.1271 21.72 27.9671 23.928H36.4631V23.592ZM61.9875 12.792C62.9155 12.792 63.7635 12.904 64.5315 13.128L63.3315 20.472C62.3715 20.248 61.6035 20.136 61.0275 20.136C59.5235 20.136 58.3715 20.664 57.5715 21.72C56.8035 22.744 56.1955 24.296 55.7475 26.376V39H48.1635V13.512H54.7875L55.4115 18.456C55.9875 16.696 56.8515 15.32 58.0035 14.328C59.1875 13.304 60.5155 12.792 61.9875 12.792ZM82.3571 12.696C84.5651 12.696 86.2931 13.368 87.5411 14.712C88.7891 16.056 89.4131 17.944 89.4131 20.376V39H81.8291V21.672C81.8291 20.392 81.6211 19.512 81.2051 19.032C80.8211 18.52 80.2291 18.264 79.4291 18.264C77.8931 18.264 76.4211 19.368 75.0131 21.576V39H67.4291V13.512H74.0531L74.5811 16.536C75.6691 15.256 76.8371 14.296 78.0851 13.656C79.3651 13.016 80.7891 12.696 82.3571 12.696ZM115.388 31.608C115.388 32.568 115.516 33.272 115.772 33.72C116.06 34.168 116.508 34.504 117.116 34.728L115.532 39.672C113.964 39.544 112.684 39.208 111.692 38.664C110.7 38.088 109.932 37.192 109.388 35.976C107.724 38.536 105.164 39.816 101.708 39.816C99.1803 39.816 97.1643 39.08 95.6603 37.608C94.1563 36.136 93.4043 34.216 93.4043 31.848C93.4043 29.064 94.4283 26.936 96.4763 25.464C98.5243 23.992 101.484 23.256 105.356 23.256H107.948V22.152C107.948 20.648 107.628 19.624 106.988 19.08C106.348 18.504 105.228 18.216 103.628 18.216C102.796 18.216 101.788 18.344 100.604 18.6C99.4203 18.824 98.2043 19.144 96.9563 19.56L95.2283 14.568C96.8283 13.96 98.4603 13.496 100.124 13.176C101.82 12.856 103.388 12.696 104.828 12.696C108.476 12.696 111.148 13.448 112.844 14.952C114.54 16.456 115.388 18.712 115.388 21.72V31.608ZM103.916 34.392C105.644 34.392 106.988 33.576 107.948 31.944V27.432H106.076C104.348 27.432 103.052 27.736 102.188 28.344C101.356 28.952 100.94 29.896 100.94 31.176C100.94 32.2 101.196 33 101.708 33.576C102.252 34.12 102.988 34.392 103.916 34.392ZM136.357 12.696C138.565 12.696 140.293 13.368 141.541 14.712C142.789 16.056 143.413 17.944 143.413 20.376V39H135.829V21.672C135.829 20.392 135.621 19.512 135.205 19.032C134.821 18.52 134.229 18.264 133.429 18.264C131.893 18.264 130.421 19.368 129.013 21.576V39H121.429V13.512H128.053L128.581 16.536C129.669 15.256 130.837 14.296 132.085 13.656C133.365 13.016 134.789 12.696 136.357 12.696ZM171.98 3.384V39H165.26L164.876 36.024C163.084 38.552 160.668 39.816 157.628 39.816C154.46 39.816 152.044 38.6 150.38 36.168C148.748 33.736 147.932 30.408 147.932 26.184C147.932 23.592 148.364 21.272 149.228 19.224C150.092 17.176 151.308 15.576 152.876 14.424C154.476 13.272 156.3 12.696 158.348 12.696C160.78 12.696 162.796 13.496 164.396 15.096V2.568L171.98 3.384ZM159.98 34.248C161.74 34.248 163.212 33.288 164.396 31.368V20.376C163.788 19.64 163.164 19.096 162.524 18.744C161.916 18.392 161.212 18.216 160.412 18.216C159.004 18.216 157.884 18.872 157.052 20.184C156.22 21.496 155.804 23.512 155.804 26.232C155.804 29.208 156.156 31.288 156.86 32.472C157.596 33.656 158.636 34.248 159.98 34.248ZM188.954 12.696C192.858 12.696 195.914 13.896 198.122 16.296C200.33 18.664 201.434 21.992 201.434 26.28C201.434 29 200.922 31.384 199.898 33.432C198.906 35.448 197.466 37.016 195.578 38.136C193.722 39.256 191.514 39.816 188.954 39.816C185.082 39.816 182.026 38.632 179.786 36.264C177.578 33.864 176.474 30.52 176.474 26.232C176.474 23.512 176.97 21.144 177.962 19.128C178.986 17.08 180.426 15.496 182.282 14.376C184.17 13.256 186.394 12.696 188.954 12.696ZM188.954 18.264C187.418 18.264 186.266 18.92 185.498 20.232C184.73 21.512 184.346 23.512 184.346 26.232C184.346 29.016 184.714 31.048 185.45 32.328C186.218 33.608 187.386 34.248 188.954 34.248C190.49 34.248 191.642 33.608 192.41 32.328C193.178 31.016 193.562 29 193.562 26.28C193.562 23.496 193.178 21.464 192.41 20.184C191.674 18.904 190.522 18.264 188.954 18.264ZM243.111 39H233.079L223.479 13.224C223.799 15.752 224.039 17.992 224.199 19.944C224.391 21.864 224.487 24.152 224.487 26.808V39H217.479V5.736H227.271L237.111 31.56C236.407 27.176 236.055 23.048 236.055 19.176V5.736H243.111V39ZM260.204 12.696C264.108 12.696 267.164 13.896 269.372 16.296C271.58 18.664 272.684 21.992 272.684 26.28C272.684 29 272.172 31.384 271.148 33.432C270.156 35.448 268.716 37.016 266.828 38.136C264.972 39.256 262.764 39.816 260.204 39.816C256.332 39.816 253.276 38.632 251.036 36.264C248.828 33.864 247.724 30.52 247.724 26.232C247.724 23.512 248.22 21.144 249.212 19.128C250.236 17.08 251.676 15.496 253.532 14.376C255.42 13.256 257.644 12.696 260.204 12.696ZM260.204 18.264C258.668 18.264 257.516 18.92 256.748 20.232C255.98 21.512 255.596 23.512 255.596 26.232C255.596 29.016 255.964 31.048 256.7 32.328C257.468 33.608 258.636 34.248 260.204 34.248C261.74 34.248 262.892 33.608 263.66 32.328C264.428 31.016 264.812 29 264.812 26.28C264.812 23.496 264.428 21.464 263.66 20.184C262.924 18.904 261.772 18.264 260.204 18.264ZM300.667 15C299.003 15.672 296.555 16.008 293.323 16.008C294.987 16.712 296.203 17.576 296.971 18.6C297.739 19.624 298.123 20.952 298.123 22.584C298.123 24.216 297.691 25.688 296.827 27C295.963 28.28 294.715 29.288 293.083 30.024C291.483 30.76 289.595 31.128 287.419 31.128C286.395 31.128 285.419 31.032 284.491 30.84C284.235 30.968 284.027 31.176 283.867 31.464C283.739 31.72 283.675 31.992 283.675 32.28C283.675 32.76 283.851 33.144 284.203 33.432C284.587 33.688 285.339 33.816 286.459 33.816H290.299C292.251 33.816 293.963 34.136 295.435 34.776C296.907 35.416 298.043 36.296 298.843 37.416C299.643 38.536 300.043 39.8 300.043 41.208C300.043 43.864 298.891 45.928 296.587 47.4C294.315 48.904 291.019 49.656 286.699 49.656C283.595 49.656 281.147 49.32 279.355 48.648C277.563 48.008 276.299 47.096 275.563 45.912C274.859 44.728 274.507 43.24 274.507 41.448H281.323C281.323 42.216 281.467 42.824 281.755 43.272C282.075 43.72 282.635 44.056 283.435 44.28C284.235 44.504 285.387 44.616 286.891 44.616C288.971 44.616 290.411 44.36 291.211 43.848C292.011 43.368 292.411 42.664 292.411 41.736C292.411 40.968 292.107 40.36 291.499 39.912C290.891 39.464 289.979 39.24 288.763 39.24H285.067C282.443 39.24 280.475 38.776 279.163 37.848C277.883 36.888 277.243 35.672 277.243 34.2C277.243 33.272 277.515 32.376 278.059 31.512C278.603 30.616 279.339 29.88 280.267 29.304C278.667 28.44 277.499 27.432 276.763 26.28C276.059 25.096 275.707 23.672 275.707 22.008C275.707 19.16 276.731 16.904 278.779 15.24C280.827 13.544 283.531 12.696 286.891 12.696C289.451 12.76 291.611 12.504 293.371 11.928C295.163 11.352 297.003 10.504 298.891 9.384L300.667 15ZM287.083 17.688C285.899 17.688 284.955 18.072 284.251 18.84C283.579 19.576 283.243 20.6 283.243 21.912C283.243 23.288 283.579 24.36 284.251 25.128C284.955 25.864 285.899 26.232 287.083 26.232C288.331 26.232 289.275 25.864 289.915 25.128C290.587 24.392 290.923 23.288 290.923 21.816C290.923 19.064 289.643 17.688 287.083 17.688ZM324.668 39H318.092L317.756 35.784C315.9 38.472 313.324 39.816 310.028 39.816C307.692 39.816 305.916 39.112 304.7 37.704C303.516 36.296 302.924 34.328 302.924 31.8V13.512H310.508V30.84C310.508 32.088 310.7 32.968 311.084 33.48C311.5 33.96 312.124 34.2 312.956 34.2C314.556 34.2 315.932 33.208 317.084 31.224V13.512H324.668V39ZM352.856 25.752C352.856 26.808 352.808 27.72 352.712 28.488H336.92C337.176 30.632 337.784 32.136 338.744 33C339.704 33.864 341.032 34.296 342.728 34.296C343.752 34.296 344.744 34.12 345.704 33.768C346.664 33.384 347.704 32.808 348.824 32.04L351.944 36.264C348.968 38.632 345.656 39.816 342.008 39.816C337.88 39.816 334.712 38.6 332.504 36.168C330.296 33.736 329.192 30.472 329.192 26.376C329.192 23.784 329.656 21.464 330.584 19.416C331.512 17.336 332.872 15.704 334.664 14.52C336.456 13.304 338.6 12.696 341.096 12.696C344.776 12.696 347.656 13.848 349.736 16.152C351.816 18.456 352.856 21.656 352.856 25.752ZM345.416 23.592C345.352 19.688 343.976 17.736 341.288 17.736C339.976 17.736 338.952 18.216 338.216 19.176C337.512 20.136 337.08 21.72 336.92 23.928H345.416V23.592ZM364.701 13.512V39H357.117V13.512H364.701ZM360.861 0.0719976C362.173 0.0719976 363.245 0.487998 364.077 1.32C364.941 2.12 365.373 3.144 365.373 4.392C365.373 5.64 364.941 6.68 364.077 7.512C363.245 8.312 362.173 8.712 360.861 8.712C359.549 8.712 358.477 8.312 357.645 7.512C356.813 6.68 356.397 5.64 356.397 4.392C356.397 3.144 356.813 2.12 357.645 1.32C358.477 0.487998 359.549 0.0719976 360.861 0.0719976ZM384.488 12.792C385.416 12.792 386.264 12.904 387.032 13.128L385.832 20.472C384.872 20.248 384.104 20.136 383.528 20.136C382.024 20.136 380.872 20.664 380.072 21.72C379.304 22.744 378.696 24.296 378.248 26.376V39H370.664V13.512H377.288L377.912 18.456C378.488 16.696 379.352 15.32 380.504 14.328C381.688 13.304 383.016 12.792 384.488 12.792ZM408.498 31.608C408.498 32.568 408.626 33.272 408.882 33.72C409.17 34.168 409.618 34.504 410.226 34.728L408.642 39.672C407.074 39.544 405.794 39.208 404.802 38.664C403.81 38.088 403.042 37.192 402.498 35.976C400.834 38.536 398.274 39.816 394.818 39.816C392.29 39.816 390.274 39.08 388.77 37.608C387.266 36.136 386.514 34.216 386.514 31.848C386.514 29.064 387.538 26.936 389.586 25.464C391.634 23.992 394.594 23.256 398.466 23.256H401.058V22.152C401.058 20.648 400.738 19.624 400.098 19.08C399.458 18.504 398.338 18.216 396.738 18.216C395.906 18.216 394.898 18.344 393.714 18.6C392.53 18.824 391.314 19.144 390.066 19.56L388.338 14.568C389.938 13.96 391.57 13.496 393.234 13.176C394.93 12.856 396.498 12.696 397.938 12.696C401.586 12.696 404.258 13.448 405.954 14.952C407.65 16.456 408.498 18.712 408.498 21.72V31.608ZM397.026 34.392C398.754 34.392 400.098 33.576 401.058 31.944V27.432H399.186C397.458 27.432 396.162 27.736 395.298 28.344C394.466 28.952 394.05 29.896 394.05 31.176C394.05 32.2 394.306 33 394.818 33.576C395.362 34.12 396.098 34.392 397.026 34.392Z" fill="#141414"/>
</svg>
